<svg xmlns="http://www.w3.org/2000/svg" xmlns:xlink="http://www.w3.org/1999/xlink" version="1.0" x="0px" y="0px" viewBox="0 0 37.5 109.875" style="enable-background:new 0 0 37.5 87.9;" xml:space="preserve"><style type="text/css">
	.st0{fill-rule:evenodd;clip-rule:evenodd;}
</style><g><path class="st0" d="M23.7,10.7c0-0.1,0-0.1,0-0.2c0,0,0-0.1,0-0.1c0.1,0,0.1,0,0.1,0.1C23.8,10.6,23.7,10.6,23.7,10.7   C23.7,10.7,23.7,10.7,23.7,10.7z"/><g><path class="st0" d="M22.1,14.7c-0.1-0.2-0.2-0.4-0.4-0.5c-0.1-0.1-0.2-0.2-0.3-0.4c0.2-0.2,0.4-0.4,0.6-0.7c0-0.1,0.1-0.2,0-0.2    c0-0.1-0.1-0.2-0.3-0.2c-0.1,0-0.2,0-0.2,0c-0.1,0-0.2,0-0.2,0c-0.3,0-0.4-0.1-0.5-0.5c0-0.1,0-0.2,0-0.2c0.2,0,0.4-0.1,0.6-0.1    c0.1,0,0.2-0.1,0.2-0.3c0-0.1-0.1-0.1-0.3-0.1c-0.3,0-0.4,0.3-0.4,0.5c-0.1-0.2-0.2-0.4-0.4-0.6c-0.1-0.2,0-0.3,0.2-0.4    c0.1-0.1,0.1-0.2,0-0.3c-0.1,0-0.1-0.1-0.2-0.1c-0.3,0-0.2-0.3-0.3-0.4l0,0c0.3-0.2,0.5-0.4,0.8-0.5c0,0.1-0.1,0.1-0.1,0.2    c0,0,0,0.1,0,0.1c0.1-0.1,0-0.2,0-0.3c-0.1-0.4-0.4-0.6-0.3-1c0-0.1,0.1-0.1,0.1-0.2c0,0,0.1,0,0.1,0c0.2,0.1,0.3,0.4,0.4,0.6    c0.1,0.4,0.4,0.7,0.7,1c0.1,0,0.1,0.1,0.2,0.1c0.5,0,0.6,0.3,0.8,0.6c0.3,0.6,0.6,1.2,0.9,1.8c0.1,0.2,0.3,0.4,0.4,0.6    c0,0,0.1,0,0.1,0c0-0.1,0.1-0.1,0.1-0.2c-0.2-0.7-0.5-1.5-0.8-2.2c0,0-0.1-0.1-0.1-0.1l0,0c0.1,0,0.2,0,0.2,0    c0.1,0,0.3,0.1,0.3,0.2c0.2,0.8,0.5,1.5,0.9,2.2c0.2,0.5,0.4,1,0.6,1.5c0.1,0.2,0.1,0.4,0.3,0.5c0.6,0.6,0.8,1.3,1.1,2.1    c0.1,0.3,0.2,0.5,0.4,0.8c0.4,0.4,0.6,0.9,0.7,1.4c0.1,0.6,0.5,1,0.8,1.5c0.1,0.1,0.3,0.2,0.4,0.3c0.3,0.1,0.6-0.2,0.6-0.5    c0,0,0-0.1,0-0.1c-0.2-0.6-0.3-1.2-0.5-1.8c-0.1-0.6-0.4-1.2-0.7-1.7c-0.4-1.1-0.9-2.1-1.1-3.3c-0.1-0.4-0.3-0.8-0.4-1.2    c-0.3-0.6-0.4-1.3-0.7-2c-0.2-0.4-0.3-0.8-0.4-1.2c0,0,0-0.1,0.1-0.1c0,0,0.1,0,0.1,0c0.2,0.2,0.3,0.5,0.5,0.7    c0.2,0.4,0.3,0.8,0.5,1.1c0.1,0.3,0.2,0.5,0.4,0.7c0.5,0.6,0.8,1.2,1.2,1.9c0.1,0.2,0.2,0.4,0.3,0.5c0.8,0.9,1.4,2,2.1,3    c0.1,0.2,0.2,0.4,0.3,0.6c0.3,0.7,0.6,1.3,0.9,1.9c0,0.1,0.1,0.1,0.1,0.2c0.3,0.8,0.7,1.5,1,2.3c0.5,1.4,1,2.7,1.6,4    c0.3,0.8,0.5,1.6,0.8,2.3c0,0.1,0.1,0.2,0.1,0.4c0,0.7,0.3,1.3,0.5,1.9c0.7,1.6,0.7,3.2,0.2,4.9c0,0.1-0.1,0.2-0.1,0.4    c-0.2,0.8-0.6,1.3-1.3,1.7c-0.5,0.3-1,0.7-1.6,1c-0.3,0.2-0.5,0.4-0.7,0.7c-0.2,0.3-0.5,0.5-0.9,0.7c-0.5,0.2-1.1,0.5-1.6,0.7    c-0.1,0.1-0.3,0.1-0.5,0.2c-1.5,0.4-2.9,0.8-4.4,1.2c-0.2,0-0.3,0-0.5,0.1c-0.3,0-0.6,0.1-0.9,0.2c-0.9,0.3-1.8,0.4-2.6,0.7    c-1.4,0.4-2.8,0.5-4.3,0.4c-0.3,0-0.6,0-0.9,0c-0.2,0-0.3,0.1-0.5,0.1c-0.4,0.1-0.9,0-1.3,0.2c-0.4,0.2-0.8,0.2-1.2,0.3    c-0.6,0.1-1.1,0.4-1.5,0.9c-0.1,0.1-0.1,0.2-0.2,0.3c-0.7,0.6-0.9,1.4-1,2.2c-0.1,1.1-0.2,2.1,0.1,3.2c0,0.1,0,0.2,0,0.4    c0.1,0.7,0.2,1.3,0.3,2c0.2,0.6,0.5,1.2,0.7,1.8c0.4,1.2,0.9,2.3,1.5,3.4c0.3,0.6,0.6,1.3,0.9,1.9c0.3,0.6,0.5,1.1,0.8,1.7    c0.4,0.6,0.7,1.3,1,2c0.3,0.6,0.6,1.2,1,1.7c0.4,0.7,0.8,1.4,1.2,2c0.3,0.5,0.6,0.9,0.9,1.3c0.3,0.4,0.6,0.8,0.9,1.2    c0.4,0.5,0.8,1,1.2,1.4c0.2,0.2,0.4,0.4,0.7,0.4c0.1,0,0.2,0,0.2-0.1c0.1-0.2,0.1-0.5,0.1-0.7c0.1-1,0.2-2,0.1-3    c0-0.1,0-0.2,0-0.2c0-0.4,0.1-0.7,0.1-1.1c0-0.3-0.1-0.6,0-1c0.1-0.2,0.1-0.4,0.1-0.6c0-0.8,0.1-1.7,0.1-2.5c0-0.2,0-0.4,0.1-0.6    c0-0.3,0.1-0.7,0.1-1c0.1-1.6,0.5-3.2,1.1-4.7c0.2-0.4,0.3-0.9,0.5-1.3c0.1-0.3,0.3-0.7,0.5-1c0.1-0.2,0.4-0.3,0.6-0.1    c0.3,0.3,0.6,0.6,0.7,1.1c0,0.1,0,0.2,0.1,0.4c0.2,0.5,0.3,0.9,0.8,1.3c0.1,0.1,0.2,0.2,0.4,0.4c-0.1,1,0.3,2,0.5,3    c0.1,0.4,0.1,0.7,0.2,1.1c0.1,0.4,0,0.8,0.3,1.2c0.1,0.1,0.1,0.3,0.1,0.5c0,1.3,0.1,2.6,0,3.8c0,0.7,0,1.5-0.1,2.2    c0,0.5-0.1,1-0.1,1.5c-0.1,1,0,2,0.1,3c0,0.3,0,0.5,0,0.7c-0.1,0.3-0.1,0.6,0.1,1c0.1,0.2,0.1,0.4,0.1,0.6c0,0.2,0,0.3,0,0.5    c0.1,0.5,0.3,0.7,0.8,0.8c0.6,0,1.2,0.2,1.8,0.3c0.2,0,0.3,0.2,0.3,0.3c0,0.1,0.1,0.3,0,0.4c-0.2,0.6-0.3,1.2-0.8,1.7    c-0.3,0.3-0.6,0.6-0.7,1c0,0.1-0.2,0.3-0.3,0.4c-0.1,0.1-0.2,0.1-0.3,0.2c-1.1,0.8-1.1,0.8-1.6,2.1c-0.1,0.3-0.2,0.5-0.4,0.7    c-0.1,0.1-0.2,0.2-0.2,0.3c0,0.5-0.4,0.8-0.4,1.3c-0.1,0.4-0.3,0.6-0.6,0.7c-0.2,0.1-0.3,0.2-0.4,0.2c-0.4,0.2-0.7,0.3-1,0.7    c-0.3,0.3-0.7,0.4-1.1,0.3c-0.3-0.1-0.6-0.2-0.7-0.6c-0.2-0.5-0.3-1.1-0.3-1.7c0-0.3,0-0.7-0.2-1c-0.1-0.2-0.3-0.4-0.5-0.5    c-0.6-0.2-1-0.5-1.5-0.8c-0.4-0.3-0.8-0.5-1.3-0.6c-0.4-0.1-0.7-0.2-1.1-0.4c-0.2-0.1-0.4-0.1-0.6-0.2c-0.6,0-1.2-0.3-1.8-0.5    c-1.4-0.5-2.7-1-4.1-1.4c-0.2-0.1-0.4-0.2-0.6-0.2c-0.1,0-0.1-0.1-0.2-0.1c-1.7-0.4-3.2-1.2-4.8-1.7c-1-0.3-2.1-0.6-3.1-1    c-1.1-0.4-2.1-0.9-3-1.6C0,75.4,0,75.2,0,74.9c0-0.3,0.1-0.6,0.2-1c0.7-1.4,0.3-1.1,1.7-2c0.1-0.1,0.2-0.2,0.4-0.3    c0.4-0.3,0.9-0.5,1.4-0.3c0.2,0.1,0.5,0.2,0.7,0.1c0.1-0.1,0.2,0,0.3,0.1c0.1,0.1,0.2,0.2,0.3,0.2c0.2,0.1,0.3,0.1,0.5,0.1    c0.3,0,0.6-0.1,0.8-0.2c0.7,0.2,1.5,0.4,2.3,0.5c0.5,0,1.1,0.2,1.6,0.3c0.4,0.1,0.8,0.2,1.2,0.3c0.1,0,0.3-0.2,0.3-0.3    c0-0.1-0.1-0.2-0.1-0.3c-0.2-0.4-0.5-0.9-0.7-1.3c-0.2-0.5-0.3-0.9-0.8-1.2c-0.1,0-0.1-0.1-0.1-0.2c-0.3-0.7-0.7-1.3-1-2    c-0.6-1.4-1.3-2.7-1.9-4c-0.3-0.6-0.5-1.1-0.7-1.7c-0.3-0.8-0.6-1.7-1.1-2.5c-0.2-0.4-0.3-0.9-0.3-1.3c0-0.3,0-0.5-0.2-0.7    c-0.2-0.3-0.3-0.7-0.3-1.1c0-0.8-0.1-1.7-0.1-2.5c0-0.8,0.1-1.6,0.3-2.3c0.1-0.6,0.3-1.2,0.5-1.8c0.1-0.4,0.4-0.8,0.7-1.2    c0.6-0.7,1.1-1.3,1.6-2.1c0.1-0.1,0.2-0.3,0.4-0.3C8,45.5,8.2,45.3,8.4,45c0.7-0.9,1.4-1.8,2.2-2.7c0.1-0.1,0.2-0.2,0.2-0.3    c0.2-0.1,0.3-0.3,0.5-0.3c0.2,0,0.4,0.1,0.6,0.2c0.2-0.2,0.5-0.3,0.8-0.5c0.6-0.5,1.3-0.9,1.9-1.4c0.4-0.3,0.8-0.6,1.3-0.7    c0.4-0.1,0.8-0.4,1.3-0.4c0.3,0,0.6-0.2,0.8-0.2c0.7-0.2,1.4-0.4,2.2-0.5c0.2,0,0.3,0,0.5,0c1-0.3,2-0.2,3.1-0.3    c1.1-0.1,2.2-0.3,3.3-0.5c0.1,0,0.2,0,0.2-0.1c0.2-0.1,0.4-0.2,0.4-0.4c0.1-0.4,0.1-0.8,0-1.1c-0.2-0.4,0-0.7-0.2-1.1    c-0.1-0.3-0.2-0.6-0.2-1c0-0.1,0-0.3,0-0.4c-0.1-0.4-0.2-0.7-0.4-1.1c-0.2-0.4-0.6-0.7-0.6-1.2c0-0.4-0.3-0.8-0.4-1.2    c-0.1-0.4-0.2-0.9-0.4-1.3c-0.2-0.6-0.4-1.2-0.6-1.8c-0.3-0.7-0.6-1.4-0.8-2.1c-0.1-0.2-0.1-0.3-0.1-0.5c-0.1-0.3-0.2-0.6-0.2-0.8    c0-0.1,0.1-0.1,0.1-0.2c0.1-0.1,0.2-0.3,0.1-0.5c-0.2-0.4-0.4-0.8-0.5-1.3c-0.3-0.7-0.6-1.3-0.7-2c0-0.2-0.1-0.4,0-0.6    c0.1-0.3,0.1-0.6,0-0.9c-0.4-0.9-0.4-1.8-0.6-2.8l0,0C22.3,15,22.3,15,22.1,14.7L22.1,14.7z M23.9,18.6c0,0.1-0.1,0.2,0,0.2    C23.9,18.8,23.9,18.7,23.9,18.6c-0.1,0-0.1-0.1-0.1-0.2c0,0-0.1,0-0.1,0c0,0.1,0,0.2,0,0.2C23.8,18.7,23.9,18.6,23.9,18.6z"/><path class="st0" d="M16,4.4c-0.1,0-0.1,0.1-0.2,0.1c-0.5-0.1-0.8-0.4-1-0.8c0-0.1-0.1-0.2,0.1-0.3c0.2-0.1,0.5-0.2,0.6-0.1    c0,0,0.1,0,0.1,0.1c0.3,0.3,0.4,0.6,0.5,1C16,4.3,16,4.4,16,4.4z"/><path class="st0" d="M17.2,8.2C17.1,8,17.1,7.9,17,7.7c0,0,0-0.1,0.1-0.1c0,0,0.1,0,0.1,0C17.3,7.8,17.3,8,17.2,8.2z"/><path class="st0" d="M21.6,18.5c0.3,0,0.3,0.3,0.4,0.4c0.1,0.1,0,0.2-0.1,0.2c0,0-0.1,0-0.1-0.1C21.6,18.9,21.6,18.7,21.6,18.5    L21.6,18.5z"/><path class="st0" d="M14.4,2C14.4,2,14.4,2,14.4,2c-0.1,0.1-0.1,0-0.2,0c0-0.1,0.1-0.1,0.1-0.2C14.4,1.8,14.5,1.9,14.4,2    C14.5,1.9,14.5,1.9,14.4,2z"/><path class="st0" d="M19.7,8.7c-0.1,0-0.1-0.1-0.2-0.1c0-0.1,0-0.2,0.1-0.2c0.1,0,0.2,0,0.2,0.1C19.8,8.6,19.8,8.7,19.7,8.7z"/><polygon class="st0" points="13.5,0.1 13.5,0 13.6,0   "/><polygon class="st0" points="20,6.7 20,6.8 19.9,6.7   "/><path class="st0" d="M18,10C18,10,18,10,18,10C18,10,18,9.9,18,10C18,9.9,18,9.9,18,10z"/><path class="st0" d="M16.6,1.3L16.6,1.3L16.6,1.3z"/><path class="st0" d="M21.6,18.5C21.6,18.5,21.6,18.5,21.6,18.5C21.6,18.5,21.6,18.5,21.6,18.5z"/><polygon class="st0" points="16.5,1.3 16.6,1.3 16.6,1.3   "/></g></g><text x="0" y="102.9" fill="#000000" font-size="5px" font-weight="bold" font-family="'Helvetica Neue', Helvetica, Arial-Unicode, Arial, Sans-serif">Created by Aiden Regalado</text><text x="0" y="107.9" fill="#000000" font-size="5px" font-weight="bold" font-family="'Helvetica Neue', Helvetica, Arial-Unicode, Arial, Sans-serif">from the Noun Project</text></svg>